# xmcd
#
# Track frame offsets: 
#        150
#        12678
#        24151
#        35779
#        49914
#        59303
#        72460
#        82669
#        97670
#        108804
#        121913
#        150229
#        162843
#        173762
#        184321
#        217516
#
# Disc length: 3053 seconds
#
# Revision: 1
# Processed by: cddbd v1.5.2PL0 Copyright (c) Steve Scherf et al.
# Submitted via: ExactAudioCopyFreeDBPlugin 1.0
#
DISCID=bc0beb10
DTITLE=Various Artist - Walk On The Wild Side - CD2
DYEAR=2014
DGENRE=Jazz
TTITLE0=Soul Bossa Nova - Quincy Jones and His Orchestra
TTITLE1=Rebecca - Georgie René
TTITLE2=I've Got A Woman - Jimmy McGriff
TTITLE3=The Madison Time - The Ray Bryant Combo
TTITLE4=Mr. Kicks - Oscar Brown Jr.
TTITLE5=B.N. Blues - Herbie Mann
TTITLE6=Right Now - Mel Tormé
TTITLE7=Parchman Farm - Mose Allison
TTITLE8=Something Frantic - King Curtis
TTITLE9=Mo' Onions - Booker T. and The M.G.'s
TTITLE10=Samba De Orfeu - Charlie Rouse
TTITLE11=Money's Gettin' Cheaper - Jimmy Witherspoon
TTITLE12=Hot Tamales - Noble 'Thin Man' Watts
TTITLE13=You're The Boss - LaVern Baker and Jimmy Ricks
TTITLE14=Screamin' - Brother Jack McDuff
TTITLE15=Stop That Twistin' In Here - Bill Doggett
EXTD=YEAR: 2014
EXTT0=
EXTT1=
EXTT2=
EXTT3=
EXTT4=
EXTT5=
EXTT6=
EXTT7=
EXTT8=
EXTT9=
EXTT10=
EXTT11=
EXTT12=
EXTT13=
EXTT14=
EXTT15=
PLAYORDER=
